<svg xmlns="http://www.w3.org/2000/svg" width="498.488" height="497.591" viewBox="0 0 498.488 497.591">
  <defs>
    <style>
      .cls-1 {
        fill: #ffbe00;
        stroke: #ffbe00;
        stroke-width: 4px;
      }
    </style>
  </defs>
  <g id="email" transform="translate(16.501 496.091)">
    <path id="Path_2786" data-name="Path 2786" class="cls-1" d="M236.941-478.147c-1.957.926-11.744,8.132-21.737,15.955l-18.234,14.1H151.23c-50.994,0-52.642.206-60.265,6.691a30.031,30.031,0,0,0-6.7,8.544C82-428.119,81.9-427.09,81.384-393.017l-.515,34.9L43.061-328.68C22.355-312.519,4.121-298.21,2.678-296.872L0-294.3.206-147.92.515-1.541,3.606,2.885A38.167,38.167,0,0,0,11.229,10.5l4.43,3.088H478.827l4.43-3.088a38.167,38.167,0,0,0,7.623-7.617l3.091-4.426.309-146.379.206-146.379-2.678-2.573c-1.442-1.338-19.573-15.647-40.383-31.808l-37.808-29.338-.515-35c-.515-34.073-.618-35.1-2.884-39.837a30.032,30.032,0,0,0-6.7-8.544c-7.623-6.485-9.272-6.691-60.265-6.691h-45.74l-18.234-14.1c-9.993-7.823-19.779-15.029-21.737-15.955-2.266-1.235-5.872-1.853-10.3-1.853S239.208-479.382,236.941-478.147Zm17.616,18.941c2.472,1.75,6.8,5.044,9.478,7.206l5.048,3.912H225.4l9.066-7.206C245.286-463.736,247.758-464.147,254.557-459.206Zm138.25,31.5c1.545,1.647,1.751,9.264,1.957,79.263l.309,77.41,2.781,2.676c3.709,3.706,8.241,3.706,11.95,0l2.781-2.676.515-32.529.515-32.426,27.3,21.205c15.041,11.632,27.4,21.514,27.506,21.926s-30.8,24.808-68.816,54.249-69.537,54.352-70.052,55.278c-2.575,4.838,2.06,12.147,7.726,12.147,4.121,0-1.854,4.426,75.306-55.484l63.871-49.616.309,64.954c.1,35.617.1,93.983,0,129.6l-.309,64.645-108.478-84.1c-59.647-46.322-109.92-84.821-111.774-85.542-4.224-1.853-13.7-1.853-17.925-.1-1.854.823-52.127,39.323-111.774,85.645L18.028-16.982l-.309-64.748c-.1-35.617-.1-93.983,0-129.6l.309-64.954L81.9-226.668c76.13,59.087,71.288,55.484,74.585,55.484,5.975,0,10.508-6.176,8.344-11.426q-1.236-2.779-70.052-56.1c-37.911-29.44-68.816-53.734-68.713-54.146s12.465-10.294,27.506-21.926l27.3-21.205.515,32.426.515,32.529,2.781,2.676c3.709,3.706,8.241,3.706,11.95,0l2.781-2.676.309-77.41c.206-70,.412-77.616,1.957-79.263,1.545-1.75,8.035-1.853,145.564-1.853S391.262-429.457,392.807-427.707ZM358.193-86.775,464.92-3.909,356.133-3.6c-59.956.1-157.823.1-217.78,0L29.566-3.909,136.6-87.083c101.988-79.16,107.242-83.071,110.95-82.866C250.952-169.64,264.344-159.552,358.193-86.775Z" transform="translate(-14.5 -14.091)"/>
    <path id="Path_2787" data-name="Path 2787" class="cls-1" d="M228.2-416a96.593,96.593,0,0,0-56.4,28.1c-41,40.9-37.1,107.4,8.5,143.5,15.5,12.2,36.1,20.1,54.3,20.6,7.9.3,8.5.2,11-2.4,3.6-3.5,3.6-8,.2-11.5-2.3-2.2-3.9-2.7-12.4-3.5C191.4-245,161-278.1,161-320c0-44.6,34.4-79,79-79,32.6,0,60.9,18.6,73,48.1,5,12.1,6,19.4,6,44.6,0,21-.2,23.1-2,26.1-5.7,9.3-19.7,9.7-25.7.5-1.5-2.3-1.9-5.7-2.3-23.1l-.5-20.4-3.3-2.9c-4.1-3.6-6.3-3.7-10.3-.1-2.8,2.5-3.3,3.8-4,9.5-1.3,11-6.6,19-16.1,24.3-4.8,2.6-6.2,2.9-14.8,2.9s-10-.3-14.8-2.9a31.615,31.615,0,0,1-13.4-13.9c-1.9-3.5-2.3-5.8-2.3-13.7s.4-10.2,2.3-13.7c5.4-10.2,13.2-15.6,24.8-17.2,5-.8,7.4-1.6,9.2-3.5,3.7-3.6,3.4-8.1-.7-11.8-3.2-2.8-3.6-2.9-9.4-2.3-34.1,4-54,38.8-39.6,69.1,9,19,30.4,30.6,50.7,27.4,7.2-1.2,19.1-6.1,21.8-9.1,2-2.2,3.4-2.4,3.4-.7,0,.7,1.3,4,2.9,7.3,6.4,13.6,21,21.3,34.8,18.5,7.3-1.5,10.4-3.1,16-8.3,10.2-9.4,11.8-16,11-47-.4-19.6-.8-23.4-3.1-32.2-9.2-35.5-38.4-63.6-73.5-71C251-416.4,236.1-417.1,228.2-416Z" transform="translate(-6.909)"/>
  </g>
</svg>
