<svg xmlns="http://www.w3.org/2000/svg" xmlns:xlink="http://www.w3.org/1999/xlink" width="252" height="252" viewBox="0 0 252 252"><defs><radialGradient id="a" cx="0.5" cy="0.5" r="0.5" gradientUnits="objectBoundingBox"><stop offset="0" stop-color="#fda074"/><stop offset="1" stop-color="#b1354b"/></radialGradient><linearGradient id="b" y1="0.5" x2="1" y2="0.5" gradientUnits="objectBoundingBox"><stop offset="0" stop-opacity="0"/><stop offset="0.066"/><stop offset="0.935"/><stop offset="1" stop-opacity="0"/></linearGradient><linearGradient id="c" y1="0.5" x2="1" y2="0.5" gradientUnits="objectBoundingBox"><stop offset="0" stop-opacity="0"/><stop offset="0.125"/><stop offset="0.882"/><stop offset="1" stop-opacity="0"/></linearGradient><linearGradient id="d" x1="0.5" y1="1" x2="0.5" gradientUnits="objectBoundingBox"><stop offset="0" stop-color="#0b0b0b"/><stop offset="0.008" stop-color="#252424"/><stop offset="0.022" stop-color="#a8a8a8" stop-opacity="0"/><stop offset="0.971" stop-color="#939393" stop-opacity="0"/><stop offset="0.991" stop-color="#b6b6b6"/><stop offset="1" stop-color="#6b6b6b"/></linearGradient><clipPath id="e"><path d="M1.7,49.759l.262-.567V.486L1.7,0H0V49.762Z" transform="translate(1.958 49.762) rotate(180)" fill="none"/></clipPath><linearGradient id="f" x1="1.015" y1="0.027" x2="1.015" y2="0.976" gradientUnits="objectBoundingBox"><stop offset="0" stop-color="#636363"/><stop offset="0.019" stop-color="#fff"/><stop offset="0.026" stop-color="#fff"/><stop offset="0.046" stop-color="#c2c2c2"/><stop offset="0.5" stop-color="#c2c2c2"/><stop offset="0.985" stop-color="#c2c2c2"/><stop offset="0.994" stop-color="#4c4a4a"/><stop offset="1" stop-color="#383737" stop-opacity="0.761"/></linearGradient><linearGradient id="g" x1="1.224" y1="0.004" x2="-1.39" y2="0.134" gradientUnits="objectBoundingBox"><stop offset="0" stop-opacity="0.502"/><stop offset="0.212" stop-color="#fff"/><stop offset="0.389" stop-color="#393939" stop-opacity="0.2"/><stop offset="1" stop-color="#3c3c3c" stop-opacity="0"/></linearGradient><linearGradient id="h" x1="0.5" y1="1" x2="0.5" gradientUnits="objectBoundingBox"><stop offset="0" stop-color="#0b0b0b"/><stop offset="0.014" stop-color="#252424"/><stop offset="0.052" stop-color="#a8a8a8" stop-opacity="0"/><stop offset="0.958" stop-color="#939393" stop-opacity="0"/><stop offset="0.985" stop-color="#b6b6b6"/><stop offset="1" stop-color="#6b6b6b"/></linearGradient><clipPath id="i"><path d="M1.8,22.921l.262-.567V.486L1.8,0H0V22.924Z" transform="translate(2.062 22.924) rotate(180)" fill="none"/></clipPath><linearGradient id="j" x1="1.015" y1="0.027" x2="1.015" y2="0.947" gradientUnits="objectBoundingBox"><stop offset="0" stop-color="#636363"/><stop offset="0.019" stop-color="#fff"/><stop offset="0.026" stop-color="#fff"/><stop offset="0.046" stop-color="#c2c2c2" stop-opacity="0.608"/><stop offset="0.5" stop-color="#c2c2c2"/><stop offset="0.959" stop-color="#c2c2c2"/><stop offset="0.981" stop-color="#4c4a4a" stop-opacity="0.502"/><stop offset="1" stop-color="#383737" stop-opacity="0.502"/></linearGradient><linearGradient id="k" x1="0.494" y1="0.036" x2="-1.39" y2="0.134" xlink:href="#g"/><linearGradient id="l" x1="0.5" x2="0.496" y2="0.995" gradientUnits="objectBoundingBox"><stop offset="0" stop-color="#3d3c3c"/><stop offset="1" stop-color="#333132"/></linearGradient><linearGradient id="m" x1="0.5" y1="0.965" x2="0.5" y2="1" gradientUnits="objectBoundingBox"><stop offset="0" stop-color="#312f30" stop-opacity="0"/><stop offset="1" stop-color="#141414"/></linearGradient><clipPath id="n"><path d="M22,341.547c-6.065,0-13.013-2.844-16.808-6.985C1.812,330.876.248,324.888.248,318.7L0,21.765A23.9,23.9,0,0,1,4.134,8.291C7.919,3.246,15.019,0,24.482,0l120.45.266c9.221,0,15.277,3.005,19.06,8.082,2.57,3.449,4.091,8.22,4.091,15.216v295.4c0,5.279-2.225,11.709-5.481,15.367a20.412,20.412,0,0,1-15.275,7.212Z" transform="translate(0 0)" fill="none"/></clipPath><linearGradient id="o" x1="0.5" x2="0.5" y2="1" gradientUnits="objectBoundingBox"><stop offset="0" stop-color="#242424"/><stop offset="0.164" stop-color="#262626"/><stop offset="0.941" stop-color="#262626"/><stop offset="1" stop-color="#0e0e0e"/></linearGradient><filter id="p" x="42.49" y="20.738" width="166.852" height="339.326" filterUnits="userSpaceOnUse"><feOffset dx="1" input="SourceAlpha"/><feGaussianBlur stdDeviation="0.25" result="q"/><feFlood flood-color="#fff" flood-opacity="0.8"/><feComposite operator="in" in2="q"/><feComposite in="SourceGraphic"/></filter><linearGradient id="r" x1="0.906" y1="0.5" x2="1" y2="0.5" gradientUnits="objectBoundingBox"><stop offset="0" stop-color="#fff" stop-opacity="0"/><stop offset="1" stop-color="#262626"/></linearGradient><filter id="s" x="40.74" y="20.738" width="166.852" height="339.326" filterUnits="userSpaceOnUse"><feOffset dx="-1" input="SourceAlpha"/><feGaussianBlur stdDeviation="0.25" result="t"/><feFlood flood-color="#fff" flood-opacity="0.8"/><feComposite operator="in" in2="t"/><feComposite in="SourceGraphic"/></filter><filter id="u" x="40.99" y="17.988" width="168.102" height="341.326" filterUnits="userSpaceOnUse"><feOffset dy="-2" input="SourceAlpha"/><feGaussianBlur stdDeviation="0.5" result="v"/><feFlood flood-color="#fff" flood-opacity="0.502"/><feComposite operator="in" in2="v"/><feComposite in="SourceGraphic"/></filter><linearGradient id="w" y1="0.5" x2="1" y2="0.5" gradientUnits="objectBoundingBox"><stop offset="0" stop-color="#3b3b3b"/><stop offset="1" stop-color="#1e1e1e"/></linearGradient><filter id="x" x="42.445" y="20.944" width="165.69" height="340.155" filterUnits="userSpaceOnUse"><feOffset input="SourceAlpha"/><feGaussianBlur stdDeviation="0.5" result="y"/><feFlood flood-opacity="0.502"/><feComposite operator="in" in2="y"/><feComposite in="SourceGraphic"/></filter><linearGradient id="z" x1="0.5" x2="0.5" y2="1" gradientUnits="objectBoundingBox"><stop offset="0" stop-opacity="0"/><stop offset="1" stop-color="#1d1d1d"/></linearGradient><filter id="aa" x="40.445" y="16.944" width="169.69" height="344.155" filterUnits="userSpaceOnUse"><feOffset dy="-2" input="SourceAlpha"/><feGaussianBlur stdDeviation="1" result="ab"/><feFlood flood-opacity="0.502"/><feComposite operator="in" in2="ab"/><feComposite in="SourceGraphic"/></filter><linearGradient id="ac" y1="0.5" x2="1" y2="0.5" gradientUnits="objectBoundingBox"><stop offset="0" stop-color="#222"/><stop offset="1" stop-color="#1b1b1b"/></linearGradient><linearGradient id="ad" y1="0.5" x2="1" y2="0.5" gradientUnits="objectBoundingBox"><stop offset="0" stop-color="#181818"/><stop offset="1" stop-color="#151515"/></linearGradient><linearGradient id="ae" x1="0.5" y1="1" x2="0.5" gradientUnits="objectBoundingBox"><stop offset="0" stop-color="#656e71"/><stop offset="1" stop-opacity="0.737"/></linearGradient><filter id="af" x="69.412" y="30.43" width="6.292" height="6.29" filterUnits="userSpaceOnUse"><feOffset input="SourceAlpha"/><feGaussianBlur result="ag"/><feFlood flood-opacity="0.102"/><feComposite operator="in" in2="ag"/><feComposite in="SourceGraphic"/></filter><radialGradient id="ah" cx="0" cy="2.101" r="4.204" gradientTransform="translate(0 0.001)" gradientUnits="userSpaceOnUse"><stop offset="0.097" stop-color="#3f7acb"/><stop offset="0.253" stop-color="#25294f"/><stop offset="0.347" stop-color="#242134"/><stop offset="0.451" stop-color="#6d4093"/><stop offset="0.529" stop-color="#5b2f83"/><stop offset="0.645" stop-color="#1d182e"/><stop offset="0.743" stop-color="#18113b"/><stop offset="0.895" stop-color="#251c6b"/></radialGradient><radialGradient id="ai" cx="2.101" cy="4.202" r="4.203" gradientTransform="translate(0.001 0.001)" gradientUnits="userSpaceOnUse"><stop offset="0.172" stop-color="#fff"/><stop offset="0.273" stop-color="#323336"/><stop offset="0.387" stop-opacity="0.498"/><stop offset="0.504" stop-color="#fff"/><stop offset="0.624" stop-color="#323336"/><stop offset="0.743" stop-opacity="0.502"/><stop offset="0.9" stop-opacity="0.518"/><stop offset="0.999" stop-color="#fff"/></radialGradient><clipPath id="aj"><path d="M0,2.1A2.1,2.1,0,1,1,2.1,4.2,2.1,2.1,0,0,1,0,2.1Z" fill="none"/></clipPath><radialGradient id="ak" cx="1.443" cy="2.885" r="2.886" gradientTransform="translate(0 0.001)" gradientUnits="userSpaceOnUse"><stop offset="0.095" stop-color="#727278"/><stop offset="0.22" stop-color="#f6f6f6"/><stop offset="0.277" stop-color="#f6f7f8"/><stop offset="0.411" stop-color="#737276"/><stop offset="0.497" stop-color="#d4d5d6"/><stop offset="0.602" stop-color="#f6f6f6"/><stop offset="0.674" stop-color="#dddede"/><stop offset="0.76" stop-color="#eef1f1"/><stop offset="0.824" stop-color="#999a9c"/><stop offset="0.94" stop-color="#d6d8df"/></radialGradient><radialGradient id="al" cx="2.101" cy="4.202" r="4.203" gradientTransform="translate(0.001 0.001)" gradientUnits="userSpaceOnUse"><stop offset="0.098" stop-color="#fff" stop-opacity="0.502"/><stop offset="0.244" stop-opacity="0.502"/><stop offset="0.369" stop-color="#fff" stop-opacity="0.502"/><stop offset="0.504" stop-opacity="0.502"/><stop offset="0.617" stop-color="#fff" stop-opacity="0.502"/><stop offset="0.749" stop-color="#261e6c" stop-opacity="0.502"/><stop offset="0.878" stop-color="#fff" stop-opacity="0.502"/><stop offset="0.999" stop-opacity="0.502"/></radialGradient><linearGradient id="am" y1="0.5" x2="1" y2="0.5" gradientUnits="objectBoundingBox"><stop offset="0" stop-opacity="0.749"/><stop offset="1" stop-opacity="0"/></linearGradient><clipPath id="ao"><rect width="252" height="252"/></clipPath></defs><g id="an" clip-path="url(#ao)"><rect width="252" height="252" fill="url(#a)"/><g transform="translate(41 20)"><g transform="translate(6.851 340.078)" opacity="0.5"><path d="M0,1.06,6.379.007A.505.505,0,0,1,6.462,0h143.77l6.42,1.144-6.37,1.293a.505.505,0,0,1-.1.01H6.42Z" transform="translate(0 0.489)" fill="url(#b)"/><path d="M0,1.06,6.379.007A.505.505,0,0,1,6.462,0h143.77l6.42,1.144-6.37,1.293a.505.505,0,0,1-.1.01H6.42Z" transform="translate(0 0)" fill="url(#c)"/></g><g transform="translate(169.621 185.762) rotate(180)"><g transform="translate(0 0)"><path d="M0,0H1.7l.262.486V49.192l-.262.567-1.7,0Z" transform="translate(1.958 49.763) rotate(180)" fill="#4f4f4f"/><path d="M0,0H1.7l.262.486V49.192l-.262.567-1.7,0Z" transform="translate(1.958 49.763) rotate(180)" fill="url(#d)"/><path d="M0,0H1.7l.262.486V49.192l-.262.567-1.7,0Z" transform="translate(1.958 49.763) rotate(180)" fill="rgba(216,216,216,0.02)"/></g><g transform="translate(0 0)" clip-path="url(#e)"><g transform="translate(-0.348 -0.924)"><path d="M.727,0C.1,0,.081.448,0,3.037c0,27.6,0,45.146,0,45.146,0,2.812.629,2.784.727,3.028l.059-.767a6.445,6.445,0,0,1-.161-2.676V3.456A12.619,12.619,0,0,1,.727.934Z" transform="translate(0.786 51.211) rotate(180)" fill="url(#f)"/><path d="M.727,0C.1,0,.081.448,0,3.037c0,27.6,0,45.146,0,45.146,0,2.812.629,2.784.727,3.028l.059-.767a6.445,6.445,0,0,1-.161-2.676V3.456A12.619,12.619,0,0,1,.727.934Z" transform="translate(0.786 51.211) rotate(180)" fill="url(#g)"/></g></g></g><g transform="translate(169.97 112.051) rotate(180)"><g transform="translate(0 0)"><path d="M0,0H1.8l.262.486V22.353l-.262.567-1.8,0Z" transform="translate(2.062 22.924) rotate(180)" fill="#4f4f4f"/><path d="M0,0H1.8l.262.486V22.353l-.262.567-1.8,0Z" transform="translate(2.062 22.924) rotate(180)" fill="url(#h)"/><path d="M0,0H1.8l.262.486V22.353l-.262.567-1.8,0Z" transform="translate(2.062 22.924) rotate(180)" fill="rgba(216,216,216,0.02)"/></g><g transform="translate(0 0)" clip-path="url(#i)"><g transform="translate(-0.348 -0.924)"><path d="M.727,0C.1,0,.081.448,0,3.037c0,27.6,0,18.307,0,18.307,0,2.812.629,2.784.727,3.028L.786,23.6a6.445,6.445,0,0,1-.161-2.676V3.456A12.619,12.619,0,0,1,.727.934Z" transform="translate(0.786 24.372) rotate(180)" fill="url(#j)"/><path d="M.727,0C.1,0,.081.448,0,3.037c0,27.6,0,18.307,0,18.307,0,2.812.629,2.784.727,3.028L.786,23.6a6.445,6.445,0,0,1-.161-2.676V3.456A12.619,12.619,0,0,1,.727.934Z" transform="translate(0.786 24.372) rotate(180)" fill="url(#k)"/></g></g></g><g transform="translate(0 0)"><path d="M24.482,0l120.45.266c9.221,0,15.277,3.005,19.06,8.082,2.57,3.449,4.091,8.22,4.091,15.215v295.4c0,5.279-2.226,11.709-5.481,15.367a20.412,20.412,0,0,1-15.275,7.212H22c-6.065,0-13.013-2.845-16.808-6.985C1.812,330.876.248,324.888.248,318.7L0,21.765A23.9,23.9,0,0,1,4.133,8.291C7.919,3.247,15.019,0,24.482,0Z" fill="url(#l)"/><path d="M24.482,0l120.45.266c9.221,0,15.277,3.005,19.06,8.082,2.57,3.449,4.091,8.22,4.091,15.215v295.4c0,5.279-2.226,11.709-5.481,15.367a20.412,20.412,0,0,1-15.275,7.212H22c-6.065,0-13.013-2.845-16.808-6.985C1.812,330.876.248,324.888.248,318.7L0,21.765A23.9,23.9,0,0,1,4.133,8.291C7.919,3.247,15.019,0,24.482,0Z" fill="url(#m)"/><g fill="rgba(216,216,216,0.02)" stroke-miterlimit="10"><path d="M24.482,0l120.45.266c9.221,0,15.277,3.005,19.06,8.082,2.57,3.449,4.091,8.22,4.091,15.215v295.4c0,5.279-2.226,11.709-5.481,15.367a20.412,20.412,0,0,1-15.275,7.212H22c-6.065,0-13.013-2.845-16.808-6.985C1.812,330.876.248,324.888.248,318.7L0,21.765A23.9,23.9,0,0,1,4.133,8.291C7.919,3.247,15.019,0,24.482,0Z" stroke="none"/><path d="M 24.4794921875 1 L 24.47976684570313 1 C 20.00843811035156 1.00018310546875 16.00028991699219 1.732177734375 12.56608581542969 3.17572021484375 C 9.32489013671875 4.5380859375 6.756851196289063 6.461029052734375 4.933303833007813 8.89117431640625 C 3.750076293945313 10.4678955078125 2.753311157226563 12.53463745117188 2.050765991210938 14.86785888671875 C 1.363357543945313 17.15081787109375 0.9999847412109375 19.5357666015625 0.9999847412109375 21.76419067382813 L 1.248397827148438 318.7015075683594 C 1.248397827148438 325.1072692871094 2.953765869140625 330.6418151855469 5.927215576171875 333.885986328125 C 7.658843994140625 335.7752380371094 10.21511840820313 337.478759765625 13.12516784667969 338.682861328125 C 16.02998352050781 339.8848266601563 19.18121337890625 340.5467224121094 21.99830627441406 340.5467224121094 L 147.3263092041016 340.5467224121094 C 150.1358032226563 340.5467224121094 152.8561706542969 339.9072265625 155.4118957519531 338.64599609375 C 157.7950286865234 337.4699401855469 159.9625854492188 335.7957153320313 161.8543548583984 333.6698608398438 C 164.8838500976563 330.2652587890625 167.0827178955078 324.0818481445313 167.0827178955078 318.9671325683594 L 167.0827178955078 23.56350708007813 C 167.0827178955078 17.24267578125 165.8093109130859 12.46112060546875 163.1897583007813 8.945556640625 C 161.3503112792969 6.476898193359375 158.9638977050781 4.583404541015625 156.0968475341797 3.317779541015625 C 153.0122680664063 1.956085205078125 149.2557067871094 1.265625 144.9292602539063 1.265625 L 24.4794921875 1 M 24.48171997070313 0 L 144.9314880371094 0.265625 C 154.1522216796875 0.265625 160.2085723876953 3.270965576171875 163.9916229248047 8.348052978515625 C 166.5618438720703 11.79739379882813 168.0827178955078 16.56842041015625 168.0827178955078 23.56350708007813 L 168.0827178955078 318.9671325683594 C 168.0827178955078 324.2462158203125 165.8571624755859 330.67578125 162.6013946533203 334.3346252441406 C 158.7996673583984 338.6068725585938 153.5029449462891 341.5467224121094 147.3263092041016 341.5467224121094 L 21.99830627441406 341.5467224121094 C 15.93302917480469 341.5467224121094 8.985122680664063 338.7021789550781 5.190032958984375 334.5616760253906 C 1.812347412109375 330.87646484375 0.2483978271484375 324.8879089355469 0.2483978271484375 318.7015075683594 L -1.52587890625e-05 21.76498413085938 C -1.52587890625e-05 17.10971069335938 1.537445068359375 11.75039672851563 4.133438110351563 8.29095458984375 C 7.91876220703125 3.24658203125 15.01902770996094 0 24.48171997070313 0 Z" stroke="none" fill="rgba(0,0,0,0.3)"/></g><g transform="translate(0 0)" clip-path="url(#n)"><circle cx="9.921" cy="9.921" r="9.921" transform="translate(-5.713 0)" fill="#fff" opacity="0.654"/><circle cx="9.921" cy="9.921" r="9.921" transform="translate(144.557 -4.217)" opacity="0.5"/><g transform="translate(1.49 1.488)"><g transform="matrix(1, 0, 0, 1, -42.49, -21.49)" filter="url(#p)"><path d="M22.988,0C14.279,0,7.459,2.867,3.836,7.7A22.414,22.414,0,0,0,0,20.276L.248,316.717c0,6.214,1.621,11.659,4.551,14.855,3.482,3.8,10.014,6.254,15.709,6.254H145.836A18.63,18.63,0,0,0,160,331.362c2.965-3.332,5.105-9.385,5.105-14.379V22.075c0-6.373-1.288-10.961-3.8-14.327C157.637,2.825,151.839.266,143.438.266Z" transform="translate(42.49 21.49)" fill="url(#o)"/></g><g transform="matrix(1, 0, 0, 1, -42.49, -21.49)" filter="url(#s)"><path d="M22.988,0C14.279,0,7.459,2.867,3.836,7.7A22.414,22.414,0,0,0,0,20.276L.248,316.717c0,6.214,1.621,11.659,4.551,14.855,3.482,3.8,10.014,6.254,15.709,6.254H145.836A18.63,18.63,0,0,0,160,331.362c2.965-3.332,5.105-9.385,5.105-14.379V22.075c0-6.373-1.288-10.961-3.8-14.327C157.637,2.825,151.839.266,143.438.266Z" transform="translate(42.49 21.49)" fill="url(#r)"/></g><g transform="matrix(1, 0, 0, 1, -42.49, -21.49)" filter="url(#u)"><path d="M22.988,0C14.279,0,7.459,2.867,3.836,7.7A22.414,22.414,0,0,0,0,20.276L.248,316.717c0,6.214,1.621,11.659,4.551,14.855,3.482,3.8,10.014,6.254,15.709,6.254H145.836A18.63,18.63,0,0,0,160,331.362c2.965-3.332,5.105-9.385,5.105-14.379V22.075c0-6.373-1.288-10.961-3.8-14.327C157.637,2.825,151.839.266,143.438.266Z" transform="translate(42.49 21.49)" fill="none"/></g></g><g transform="translate(2.945 2.444)"><g transform="matrix(1, 0, 0, 1, -43.94, -22.44)" filter="url(#x)"><path d="M0,317.463c0,6.338,1.7,10.2,4.741,13.819s9.246,5.874,13.355,5.874H143.1c5.2,0,11.328-2.2,14.776-6.072,2.61-2.933,4.561-8.831,4.561-13.851l.248-297.7a19.672,19.672,0,0,0-4.062-12.5C155.233,2.473,148.789.266,140.7.266L21.821,0C13.423,0,7.448,2.516,4.1,6.979A21.585,21.585,0,0,0,0,18.86Z" transform="translate(43.94 22.44)" fill="url(#w)"/></g><g transform="matrix(1, 0, 0, 1, -43.94, -22.44)" filter="url(#aa)"><path d="M0,317.463c0,6.338,1.7,10.2,4.741,13.819s9.246,5.874,13.355,5.874H143.1c5.2,0,11.328-2.2,14.776-6.072,2.61-2.933,4.561-8.831,4.561-13.851l.248-297.7a19.672,19.672,0,0,0-4.062-12.5C155.233,2.473,148.789.266,140.7.266L21.821,0C13.423,0,7.448,2.516,4.1,6.979A21.585,21.585,0,0,0,0,18.86Z" transform="translate(43.94 22.44)" stroke="#000" stroke-miterlimit="10" stroke-width="1" fill="url(#z)"/></g></g></g></g><g transform="translate(54.086 11.501)"><path d="M2.644,0H57.8a2.607,2.607,0,0,1,2.644,2.569A2.608,2.608,0,0,1,57.8,5.139H2.644A2.607,2.607,0,0,1,0,2.569,2.608,2.608,0,0,1,2.644,0Z" fill="url(#ac)"/><g fill="none" stroke-miterlimit="10"><path d="M2.644,0H57.8a2.607,2.607,0,0,1,2.644,2.569A2.608,2.608,0,0,1,57.8,5.139H2.644A2.607,2.607,0,0,1,0,2.569,2.608,2.608,0,0,1,2.644,0Z" stroke="none"/><path d="M 2.643604278564453 1.9073486328125e-06 C 1.184043884277344 1.9073486328125e-06 3.814697265625e-06 1.150311946868896 3.814697265625e-06 2.569291830062866 C 3.814697265625e-06 3.988581657409668 1.183582305908203 5.1385817527771 2.643604278564453 5.1385817527771 L 57.79584121704102 5.1385817527771 C 59.25540161132813 5.1385817527771 60.4394416809082 3.988271713256836 60.4394416809082 2.569291830062866 C 60.4394416809082 1.150001764297485 59.25587463378906 1.9073486328125e-06 57.79584121704102 1.9073486328125e-06 L 2.643604278564453 1.9073486328125e-06 M 2.643604278564453 -0.3999981880187988 L 57.79584121704102 -0.3999981880187988 C 59.47409439086914 -0.3999981880187988 60.83944320678711 0.9320216178894043 60.83944320678711 2.569291830062866 C 60.83944320678711 4.206562042236328 59.47409439086914 5.538581848144531 57.79584121704102 5.538581848144531 L 2.643604278564453 5.538581848144531 C 0.9653511047363281 5.538581848144531 -0.3999977111816406 4.206562042236328 -0.3999977111816406 2.569291830062866 C -0.3999977111816406 0.9320216178894043 0.9653511047363281 -0.3999981880187988 2.643604278564453 -0.3999981880187988 Z" stroke="none" fill="#707070"/></g><g transform="translate(0.979 0.979)"><circle cx="0.367" cy="0.367" r="0.367" transform="translate(57.503 1.958)"/><circle cx="0.367" cy="0.367" r="0.367" transform="translate(56.28 2.447)"/><circle cx="0.367" cy="0.367" r="0.367" transform="translate(55.056 2.447)"/><circle cx="0.367" cy="0.367" r="0.367" transform="translate(53.833 2.447)"/><circle cx="0.367" cy="0.367" r="0.367" transform="translate(52.609 2.447)"/><circle cx="0.367" cy="0.367" r="0.367" transform="translate(51.386 2.447)"/><circle cx="0.367" cy="0.367" r="0.367" transform="translate(50.162 2.447)"/><circle cx="0.367" cy="0.367" r="0.367" transform="translate(48.939 2.447)"/><circle cx="0.367" cy="0.367" r="0.367" transform="translate(47.715 2.447)"/><circle cx="0.367" cy="0.367" r="0.367" transform="translate(46.492 2.447)"/><circle cx="0.367" cy="0.367" r="0.367" transform="translate(45.268 2.447)"/><circle cx="0.367" cy="0.367" r="0.367" transform="translate(44.045 2.447)"/><circle cx="0.367" cy="0.367" r="0.367" transform="translate(42.821 2.447)"/><circle cx="0.367" cy="0.367" r="0.367" transform="translate(41.598 2.447)"/><circle cx="0.367" cy="0.367" r="0.367" transform="translate(40.375 2.447)"/><circle cx="0.367" cy="0.367" r="0.367" transform="translate(39.151 2.447)"/><circle cx="0.367" cy="0.367" r="0.367" transform="translate(37.928 2.447)"/><circle cx="0.367" cy="0.367" r="0.367" transform="translate(36.704 2.447)"/><circle cx="0.367" cy="0.367" r="0.367" transform="translate(35.481 2.447)"/><circle cx="0.367" cy="0.367" r="0.367" transform="translate(34.257 2.447)"/><circle cx="0.367" cy="0.367" r="0.367" transform="translate(33.034 2.447)"/><circle cx="0.367" cy="0.367" r="0.367" transform="translate(31.81 2.447)"/><circle cx="0.367" cy="0.367" r="0.367" transform="translate(30.587 2.447)"/><circle cx="0.367" cy="0.367" r="0.367" transform="translate(29.363 2.447)"/><circle cx="0.367" cy="0.367" r="0.367" transform="translate(28.14 2.447)"/><circle cx="0.367" cy="0.367" r="0.367" transform="translate(26.916 2.447)"/><circle cx="0.367" cy="0.367" r="0.367" transform="translate(25.693 2.447)"/><circle cx="0.367" cy="0.367" r="0.367" transform="translate(24.469 2.447)"/><circle cx="0.367" cy="0.367" r="0.367" transform="translate(23.246 2.447)"/><circle cx="0.367" cy="0.367" r="0.367" transform="translate(22.022 2.447)"/><circle cx="0.367" cy="0.367" r="0.367" transform="translate(20.799 2.447)"/><circle cx="0.367" cy="0.367" r="0.367" transform="translate(19.576 2.447)"/><circle cx="0.367" cy="0.367" r="0.367" transform="translate(18.352 2.447)"/><circle cx="0.367" cy="0.367" r="0.367" transform="translate(17.129 2.447)"/><circle cx="0.367" cy="0.367" r="0.367" transform="translate(15.905 2.447)"/><circle cx="0.367" cy="0.367" r="0.367" transform="translate(14.682 2.447)"/><circle cx="0.367" cy="0.367" r="0.367" transform="translate(13.458 2.447)"/><circle cx="0.367" cy="0.367" r="0.367" transform="translate(12.235 2.447)"/><circle cx="0.367" cy="0.367" r="0.367" transform="translate(11.011 2.447)"/><circle cx="0.367" cy="0.367" r="0.367" transform="translate(9.788 2.447)"/><circle cx="0.367" cy="0.367" r="0.367" transform="translate(8.564 2.447)"/><circle cx="0.367" cy="0.367" r="0.367" transform="translate(7.341 2.447)"/><circle cx="0.367" cy="0.367" r="0.367" transform="translate(6.117 2.447)"/><circle cx="0.367" cy="0.367" r="0.367" transform="translate(4.894 2.447)"/><circle cx="0.367" cy="0.367" r="0.367" transform="translate(3.67 2.447)"/><circle cx="0.367" cy="0.367" r="0.367" transform="translate(2.447 2.447)"/><circle cx="0.367" cy="0.367" r="0.367" transform="translate(1.223 2.447)"/><circle cx="0.367" cy="0.367" r="0.367" transform="translate(56.28 1.223)"/><circle cx="0.367" cy="0.367" r="0.367" transform="translate(55.056 1.223)"/><circle cx="0.367" cy="0.367" r="0.367" transform="translate(53.833 1.223)"/><circle cx="0.367" cy="0.367" r="0.367" transform="translate(52.609 1.223)"/><circle cx="0.367" cy="0.367" r="0.367" transform="translate(51.386 1.223)"/><circle cx="0.367" cy="0.367" r="0.367" transform="translate(50.162 1.223)"/><circle cx="0.367" cy="0.367" r="0.367" transform="translate(48.939 1.223)"/><circle cx="0.367" cy="0.367" r="0.367" transform="translate(47.715 1.223)"/><circle cx="0.367" cy="0.367" r="0.367" transform="translate(46.492 1.223)"/><circle cx="0.367" cy="0.367" r="0.367" transform="translate(45.268 1.223)"/><circle cx="0.367" cy="0.367" r="0.367" transform="translate(44.045 1.223)"/><circle cx="0.367" cy="0.367" r="0.367" transform="translate(42.821 1.223)"/><circle cx="0.367" cy="0.367" r="0.367" transform="translate(41.598 1.223)"/><circle cx="0.367" cy="0.367" r="0.367" transform="translate(40.375 1.223)"/><circle cx="0.367" cy="0.367" r="0.367" transform="translate(39.151 1.223)"/><circle cx="0.367" cy="0.367" r="0.367" transform="translate(37.928 1.223)"/><circle cx="0.367" cy="0.367" r="0.367" transform="translate(36.704 1.223)"/><circle cx="0.367" cy="0.367" r="0.367" transform="translate(35.481 1.223)"/><circle cx="0.367" cy="0.367" r="0.367" transform="translate(34.257 1.223)"/><circle cx="0.367" cy="0.367" r="0.367" transform="translate(33.034 1.223)"/><circle cx="0.367" cy="0.367" r="0.367" transform="translate(31.81 1.223)"/><circle cx="0.367" cy="0.367" r="0.367" transform="translate(30.587 1.223)"/><circle cx="0.367" cy="0.367" r="0.367" transform="translate(29.363 1.223)"/><circle cx="0.367" cy="0.367" r="0.367" transform="translate(28.14 1.223)"/><circle cx="0.367" cy="0.367" r="0.367" transform="translate(26.916 1.223)"/><circle cx="0.367" cy="0.367" r="0.367" transform="translate(25.693 1.223)"/><circle cx="0.367" cy="0.367" r="0.367" transform="translate(24.469 1.223)"/><circle cx="0.367" cy="0.367" r="0.367" transform="translate(23.246 1.223)"/><circle cx="0.367" cy="0.367" r="0.367" transform="translate(22.022 1.223)"/><circle cx="0.367" cy="0.367" r="0.367" transform="translate(20.799 1.223)"/><circle cx="0.367" cy="0.367" r="0.367" transform="translate(19.576 1.223)"/><circle cx="0.367" cy="0.367" r="0.367" transform="translate(18.352 1.223)"/><circle cx="0.367" cy="0.367" r="0.367" transform="translate(17.129 1.223)"/><circle cx="0.367" cy="0.367" r="0.367" transform="translate(15.905 1.223)"/><circle cx="0.367" cy="0.367" r="0.367" transform="translate(14.682 1.223)"/><circle cx="0.367" cy="0.367" r="0.367" transform="translate(13.458 1.223)"/><circle cx="0.367" cy="0.367" r="0.367" transform="translate(12.235 1.223)"/><circle cx="0.367" cy="0.367" r="0.367" transform="translate(11.011 1.223)"/><circle cx="0.367" cy="0.367" r="0.367" transform="translate(9.788 1.223)"/><circle cx="0.367" cy="0.367" r="0.367" transform="translate(8.564 1.223)"/><circle cx="0.367" cy="0.367" r="0.367" transform="translate(7.341 1.223)"/><circle cx="0.367" cy="0.367" r="0.367" transform="translate(6.117 1.223)"/><circle cx="0.367" cy="0.367" r="0.367" transform="translate(4.894 1.223)"/><circle cx="0.367" cy="0.367" r="0.367" transform="translate(3.67 1.223)"/><circle cx="0.367" cy="0.367" r="0.367" transform="translate(2.447 1.223)"/><circle cx="0.367" cy="0.367" r="0.367" transform="translate(1.223 1.223)"/><circle cx="0.367" cy="0.367" r="0.367" transform="translate(57.503 0.489)"/><circle cx="0.367" cy="0.367" r="0.367" transform="translate(56.28)"/><circle cx="0.367" cy="0.367" r="0.367" transform="translate(55.056)"/><circle cx="0.367" cy="0.367" r="0.367" transform="translate(53.833)"/><circle cx="0.367" cy="0.367" r="0.367" transform="translate(52.609)"/><circle cx="0.367" cy="0.367" r="0.367" transform="translate(51.386)"/><circle cx="0.367" cy="0.367" r="0.367" transform="translate(50.162)"/><circle cx="0.367" cy="0.367" r="0.367" transform="translate(48.939)"/><circle cx="0.367" cy="0.367" r="0.367" transform="translate(47.715)"/><circle cx="0.367" cy="0.367" r="0.367" transform="translate(46.492)"/><circle cx="0.367" cy="0.367" r="0.367" transform="translate(45.268)"/><circle cx="0.367" cy="0.367" r="0.367" transform="translate(44.045)"/><circle cx="0.367" cy="0.367" r="0.367" transform="translate(42.821)"/><circle cx="0.367" cy="0.367" r="0.367" transform="translate(41.598)"/><circle cx="0.367" cy="0.367" r="0.367" transform="translate(40.375)"/><circle cx="0.367" cy="0.367" r="0.367" transform="translate(39.151)"/><circle cx="0.367" cy="0.367" r="0.367" transform="translate(37.928)"/><circle cx="0.367" cy="0.367" r="0.367" transform="translate(36.704)"/><circle cx="0.367" cy="0.367" r="0.367" transform="translate(35.481)"/><circle cx="0.367" cy="0.367" r="0.367" transform="translate(34.257)"/><circle cx="0.367" cy="0.367" r="0.367" transform="translate(33.034)"/><circle cx="0.367" cy="0.367" r="0.367" transform="translate(31.81)"/><circle cx="0.367" cy="0.367" r="0.367" transform="translate(30.587)"/><circle cx="0.367" cy="0.367" r="0.367" transform="translate(29.363)"/><circle cx="0.367" cy="0.367" r="0.367" transform="translate(28.14)"/><circle cx="0.367" cy="0.367" r="0.367" transform="translate(26.916)"/><circle cx="0.367" cy="0.367" r="0.367" transform="translate(25.693)"/><circle cx="0.367" cy="0.367" r="0.367" transform="translate(24.469)"/><circle cx="0.367" cy="0.367" r="0.367" transform="translate(23.246)"/><circle cx="0.367" cy="0.367" r="0.367" transform="translate(22.022)"/><circle cx="0.367" cy="0.367" r="0.367" transform="translate(20.799)"/><circle cx="0.367" cy="0.367" r="0.367" transform="translate(19.576)"/><circle cx="0.367" cy="0.367" r="0.367" transform="translate(18.352)"/><circle cx="0.367" cy="0.367" r="0.367" transform="translate(17.129)"/><circle cx="0.367" cy="0.367" r="0.367" transform="translate(15.905)"/><circle cx="0.367" cy="0.367" r="0.367" transform="translate(14.682)"/><circle cx="0.367" cy="0.367" r="0.367" transform="translate(13.458)"/><circle cx="0.367" cy="0.367" r="0.367" transform="translate(12.235)"/><circle cx="0.367" cy="0.367" r="0.367" transform="translate(11.011)"/><circle cx="0.367" cy="0.367" r="0.367" transform="translate(9.788)"/><circle cx="0.367" cy="0.367" r="0.367" transform="translate(8.564)"/><circle cx="0.367" cy="0.367" r="0.367" transform="translate(7.341)"/><circle cx="0.367" cy="0.367" r="0.367" transform="translate(6.117)"/><circle cx="0.367" cy="0.367" r="0.367" transform="translate(4.894)"/><circle cx="0.367" cy="0.367" r="0.367" transform="translate(3.67)"/><circle cx="0.367" cy="0.367" r="0.367" transform="translate(2.447)"/><circle cx="0.367" cy="0.367" r="0.367" transform="translate(1.223)"/><circle cx="0.367" cy="0.367" r="0.367" transform="translate(0 0.734)"/><circle cx="0.367" cy="0.367" r="0.367" transform="translate(0 1.958)"/></g></g><g transform="translate(54.086 325.642)"><g stroke-miterlimit="10" fill="url(#ad)"><path d="M 57.79584121704102 5.6385817527771 L 2.643612861633301 5.6385817527771 C 0.9102227687835693 5.6385817527771 -0.4999972581863403 4.261702060699463 -0.4999972581863403 2.569291830062866 C -0.4999972581863403 0.8768818378448486 0.9102227687835693 -0.4999981820583344 2.643612861633301 -0.4999981820583344 L 57.79584121704102 -0.4999981820583344 C 59.52923202514648 -0.4999981820583344 60.9394416809082 0.8768818378448486 60.9394416809082 2.569291830062866 C 60.9394416809082 4.261702060699463 59.52923202514648 5.6385817527771 57.79584121704102 5.6385817527771 Z" stroke="none"/><path d="M 2.643604278564453 1.9073486328125e-06 C 1.184043884277344 1.9073486328125e-06 3.814697265625e-06 1.150311946868896 3.814697265625e-06 2.569291830062866 C 3.814697265625e-06 3.988581657409668 1.183582305908203 5.1385817527771 2.643604278564453 5.1385817527771 L 57.79584121704102 5.1385817527771 C 59.25540161132813 5.1385817527771 60.4394416809082 3.988271713256836 60.4394416809082 2.569291830062866 C 60.4394416809082 1.150001764297485 59.25587463378906 1.9073486328125e-06 57.79584121704102 1.9073486328125e-06 L 2.643604278564453 1.9073486328125e-06 M 2.643604278564453 -0.9999980926513672 L 57.79584121704102 -0.9999980926513672 C 59.804931640625 -0.9999980926513672 61.4394416809082 0.6011819839477539 61.4394416809082 2.569291830062866 C 61.4394416809082 4.537401676177979 59.804931640625 6.1385817527771 57.79584121704102 6.1385817527771 L 2.643604278564453 6.1385817527771 C 0.6345138549804688 6.1385817527771 -0.9999961853027344 4.537401676177979 -0.9999961853027344 2.569291830062866 C -0.9999961853027344 0.6011819839477539 0.6345138549804688 -0.9999980926513672 2.643604278564453 -0.9999980926513672 Z" stroke="none" fill="#707070"/></g><g fill="none" stroke-miterlimit="10"><path d="M2.644,0H57.8a2.607,2.607,0,0,1,2.644,2.569A2.608,2.608,0,0,1,57.8,5.139H2.644A2.607,2.607,0,0,1,0,2.569,2.608,2.608,0,0,1,2.644,0Z" stroke="none"/><path d="M 2.643604278564453 1.9073486328125e-06 C 1.184043884277344 1.9073486328125e-06 3.814697265625e-06 1.150311946868896 3.814697265625e-06 2.569291830062866 C 3.814697265625e-06 3.988581657409668 1.183582305908203 5.1385817527771 2.643604278564453 5.1385817527771 L 57.79584121704102 5.1385817527771 C 59.25540161132813 5.1385817527771 60.4394416809082 3.988271713256836 60.4394416809082 2.569291830062866 C 60.4394416809082 1.150001764297485 59.25587463378906 1.9073486328125e-06 57.79584121704102 1.9073486328125e-06 L 2.643604278564453 1.9073486328125e-06 M 2.643604278564453 -0.9999980926513672 L 57.79584121704102 -0.9999980926513672 C 59.804931640625 -0.9999980926513672 61.4394416809082 0.6011819839477539 61.4394416809082 2.569291830062866 C 61.4394416809082 4.537401676177979 59.804931640625 6.1385817527771 57.79584121704102 6.1385817527771 L 2.643604278564453 6.1385817527771 C 0.6345138549804688 6.1385817527771 -0.9999961853027344 4.537401676177979 -0.9999961853027344 2.569291830062866 C -0.9999961853027344 0.6011819839477539 0.6345138549804688 -0.9999980926513672 2.643604278564453 -0.9999980926513672 Z" stroke="none" fill="#707070"/></g><g transform="translate(1.223 1.223)"><circle cx="0.367" cy="0.367" r="0.367" transform="translate(57.503 1.958)"/><circle cx="0.367" cy="0.367" r="0.367" transform="translate(56.28 2.447)"/><circle cx="0.367" cy="0.367" r="0.367" transform="translate(55.056 2.447)"/><circle cx="0.367" cy="0.367" r="0.367" transform="translate(53.833 2.447)"/><circle cx="0.367" cy="0.367" r="0.367" transform="translate(52.609 2.447)"/><circle cx="0.367" cy="0.367" r="0.367" transform="translate(51.386 2.447)"/><circle cx="0.367" cy="0.367" r="0.367" transform="translate(50.162 2.447)"/><circle cx="0.367" cy="0.367" r="0.367" transform="translate(48.939 2.447)"/><circle cx="0.367" cy="0.367" r="0.367" transform="translate(47.715 2.447)"/><circle cx="0.367" cy="0.367" r="0.367" transform="translate(46.492 2.447)"/><circle cx="0.367" cy="0.367" r="0.367" transform="translate(45.268 2.447)"/><circle cx="0.367" cy="0.367" r="0.367" transform="translate(44.045 2.447)"/><circle cx="0.367" cy="0.367" r="0.367" transform="translate(42.821 2.447)"/><circle cx="0.367" cy="0.367" r="0.367" transform="translate(41.598 2.447)"/><circle cx="0.367" cy="0.367" r="0.367" transform="translate(40.375 2.447)"/><circle cx="0.367" cy="0.367" r="0.367" transform="translate(39.151 2.447)"/><circle cx="0.367" cy="0.367" r="0.367" transform="translate(37.928 2.447)"/><circle cx="0.367" cy="0.367" r="0.367" transform="translate(36.704 2.447)"/><circle cx="0.367" cy="0.367" r="0.367" transform="translate(35.481 2.447)"/><circle cx="0.367" cy="0.367" r="0.367" transform="translate(34.257 2.447)"/><circle cx="0.367" cy="0.367" r="0.367" transform="translate(33.034 2.447)"/><circle cx="0.367" cy="0.367" r="0.367" transform="translate(31.81 2.447)"/><circle cx="0.367" cy="0.367" r="0.367" transform="translate(30.587 2.447)"/><circle cx="0.367" cy="0.367" r="0.367" transform="translate(29.363 2.447)"/><circle cx="0.367" cy="0.367" r="0.367" transform="translate(28.14 2.447)"/><circle cx="0.367" cy="0.367" r="0.367" transform="translate(26.916 2.447)"/><circle cx="0.367" cy="0.367" r="0.367" transform="translate(25.693 2.447)"/><circle cx="0.367" cy="0.367" r="0.367" transform="translate(24.469 2.447)"/><circle cx="0.367" cy="0.367" r="0.367" transform="translate(23.246 2.447)"/><circle cx="0.367" cy="0.367" r="0.367" transform="translate(22.022 2.447)"/><circle cx="0.367" cy="0.367" r="0.367" transform="translate(20.799 2.447)"/><circle cx="0.367" cy="0.367" r="0.367" transform="translate(19.576 2.447)"/><circle cx="0.367" cy="0.367" r="0.367" transform="translate(18.352 2.447)"/><circle cx="0.367" cy="0.367" r="0.367" transform="translate(17.129 2.447)"/><circle cx="0.367" cy="0.367" r="0.367" transform="translate(15.905 2.447)"/><circle cx="0.367" cy="0.367" r="0.367" transform="translate(14.682 2.447)"/><circle cx="0.367" cy="0.367" r="0.367" transform="translate(13.458 2.447)"/><circle cx="0.367" cy="0.367" r="0.367" transform="translate(12.235 2.447)"/><circle cx="0.367" cy="0.367" r="0.367" transform="translate(11.011 2.447)"/><circle cx="0.367" cy="0.367" r="0.367" transform="translate(9.788 2.447)"/><circle cx="0.367" cy="0.367" r="0.367" transform="translate(8.564 2.447)"/><circle cx="0.367" cy="0.367" r="0.367" transform="translate(7.341 2.447)"/><circle cx="0.367" cy="0.367" r="0.367" transform="translate(6.117 2.447)"/><circle cx="0.367" cy="0.367" r="0.367" transform="translate(4.894 2.447)"/><circle cx="0.367" cy="0.367" r="0.367" transform="translate(3.67 2.447)"/><circle cx="0.367" cy="0.367" r="0.367" transform="translate(2.447 2.447)"/><circle cx="0.367" cy="0.367" r="0.367" transform="translate(1.223 2.447)"/><circle cx="0.367" cy="0.367" r="0.367" transform="translate(56.28 1.223)"/><circle cx="0.367" cy="0.367" r="0.367" transform="translate(55.056 1.223)"/><circle cx="0.367" cy="0.367" r="0.367" transform="translate(53.833 1.223)"/><circle cx="0.367" cy="0.367" r="0.367" transform="translate(52.609 1.223)"/><circle cx="0.367" cy="0.367" r="0.367" transform="translate(51.386 1.223)"/><circle cx="0.367" cy="0.367" r="0.367" transform="translate(50.162 1.223)"/><circle cx="0.367" cy="0.367" r="0.367" transform="translate(48.939 1.223)"/><circle cx="0.367" cy="0.367" r="0.367" transform="translate(47.715 1.223)"/><circle cx="0.367" cy="0.367" r="0.367" transform="translate(46.492 1.223)"/><circle cx="0.367" cy="0.367" r="0.367" transform="translate(45.268 1.223)"/><circle cx="0.367" cy="0.367" r="0.367" transform="translate(44.045 1.223)"/><circle cx="0.367" cy="0.367" r="0.367" transform="translate(42.821 1.223)"/><circle cx="0.367" cy="0.367" r="0.367" transform="translate(41.598 1.223)"/><circle cx="0.367" cy="0.367" r="0.367" transform="translate(40.375 1.223)"/><circle cx="0.367" cy="0.367" r="0.367" transform="translate(39.151 1.223)"/><circle cx="0.367" cy="0.367" r="0.367" transform="translate(37.928 1.223)"/><circle cx="0.367" cy="0.367" r="0.367" transform="translate(36.704 1.223)"/><circle cx="0.367" cy="0.367" r="0.367" transform="translate(35.481 1.223)"/><circle cx="0.367" cy="0.367" r="0.367" transform="translate(34.257 1.223)"/><circle cx="0.367" cy="0.367" r="0.367" transform="translate(33.034 1.223)"/><circle cx="0.367" cy="0.367" r="0.367" transform="translate(31.81 1.223)"/><circle cx="0.367" cy="0.367" r="0.367" transform="translate(30.587 1.223)"/><circle cx="0.367" cy="0.367" r="0.367" transform="translate(29.363 1.223)"/><circle cx="0.367" cy="0.367" r="0.367" transform="translate(28.14 1.223)"/><circle cx="0.367" cy="0.367" r="0.367" transform="translate(26.916 1.223)"/><circle cx="0.367" cy="0.367" r="0.367" transform="translate(25.693 1.223)"/><circle cx="0.367" cy="0.367" r="0.367" transform="translate(24.469 1.223)"/><circle cx="0.367" cy="0.367" r="0.367" transform="translate(23.246 1.223)"/><circle cx="0.367" cy="0.367" r="0.367" transform="translate(22.022 1.223)"/><circle cx="0.367" cy="0.367" r="0.367" transform="translate(20.799 1.223)"/><circle cx="0.367" cy="0.367" r="0.367" transform="translate(19.576 1.223)"/><circle cx="0.367" cy="0.367" r="0.367" transform="translate(18.352 1.223)"/><circle cx="0.367" cy="0.367" r="0.367" transform="translate(17.129 1.223)"/><circle cx="0.367" cy="0.367" r="0.367" transform="translate(15.905 1.223)"/><circle cx="0.367" cy="0.367" r="0.367" transform="translate(14.682 1.223)"/><circle cx="0.367" cy="0.367" r="0.367" transform="translate(13.458 1.223)"/><circle cx="0.367" cy="0.367" r="0.367" transform="translate(12.235 1.223)"/><circle cx="0.367" cy="0.367" r="0.367" transform="translate(11.011 1.223)"/><circle cx="0.367" cy="0.367" r="0.367" transform="translate(9.788 1.223)"/><circle cx="0.367" cy="0.367" r="0.367" transform="translate(8.564 1.223)"/><circle cx="0.367" cy="0.367" r="0.367" transform="translate(7.341 1.223)"/><circle cx="0.367" cy="0.367" r="0.367" transform="translate(6.117 1.223)"/><circle cx="0.367" cy="0.367" r="0.367" transform="translate(4.894 1.223)"/><circle cx="0.367" cy="0.367" r="0.367" transform="translate(3.67 1.223)"/><circle cx="0.367" cy="0.367" r="0.367" transform="translate(2.447 1.223)"/><circle cx="0.367" cy="0.367" r="0.367" transform="translate(1.223 1.223)"/><circle cx="0.367" cy="0.367" r="0.367" transform="translate(57.503 0.489)"/><circle cx="0.367" cy="0.367" r="0.367" transform="translate(56.28)"/><circle cx="0.367" cy="0.367" r="0.367" transform="translate(55.056)"/><circle cx="0.367" cy="0.367" r="0.367" transform="translate(53.833)"/><circle cx="0.367" cy="0.367" r="0.367" transform="translate(52.609)"/><circle cx="0.367" cy="0.367" r="0.367" transform="translate(51.386)"/><circle cx="0.367" cy="0.367" r="0.367" transform="translate(50.162)"/><circle cx="0.367" cy="0.367" r="0.367" transform="translate(48.939)"/><circle cx="0.367" cy="0.367" r="0.367" transform="translate(47.715)"/><circle cx="0.367" cy="0.367" r="0.367" transform="translate(46.492)"/><circle cx="0.367" cy="0.367" r="0.367" transform="translate(45.268)"/><circle cx="0.367" cy="0.367" r="0.367" transform="translate(44.045)"/><circle cx="0.367" cy="0.367" r="0.367" transform="translate(42.821)"/><circle cx="0.367" cy="0.367" r="0.367" transform="translate(41.598)"/><circle cx="0.367" cy="0.367" r="0.367" transform="translate(40.375)"/><circle cx="0.367" cy="0.367" r="0.367" transform="translate(39.151)"/><circle cx="0.367" cy="0.367" r="0.367" transform="translate(37.928)"/><circle cx="0.367" cy="0.367" r="0.367" transform="translate(36.704)"/><circle cx="0.367" cy="0.367" r="0.367" transform="translate(35.481)"/><circle cx="0.367" cy="0.367" r="0.367" transform="translate(34.257)"/><circle cx="0.367" cy="0.367" r="0.367" transform="translate(33.034)"/><circle cx="0.367" cy="0.367" r="0.367" transform="translate(31.81)"/><circle cx="0.367" cy="0.367" r="0.367" transform="translate(30.587)"/><circle cx="0.367" cy="0.367" r="0.367" transform="translate(29.363)"/><circle cx="0.367" cy="0.367" r="0.367" transform="translate(28.14)"/><circle cx="0.367" cy="0.367" r="0.367" transform="translate(26.916)"/><circle cx="0.367" cy="0.367" r="0.367" transform="translate(25.693)"/><circle cx="0.367" cy="0.367" r="0.367" transform="translate(24.469)"/><circle cx="0.367" cy="0.367" r="0.367" transform="translate(23.246)"/><circle cx="0.367" cy="0.367" r="0.367" transform="translate(22.022)"/><circle cx="0.367" cy="0.367" r="0.367" transform="translate(20.799)"/><circle cx="0.367" cy="0.367" r="0.367" transform="translate(19.576)"/><circle cx="0.367" cy="0.367" r="0.367" transform="translate(18.352)"/><circle cx="0.367" cy="0.367" r="0.367" transform="translate(17.129)"/><circle cx="0.367" cy="0.367" r="0.367" transform="translate(15.905)"/><circle cx="0.367" cy="0.367" r="0.367" transform="translate(14.682)"/><circle cx="0.367" cy="0.367" r="0.367" transform="translate(13.458)"/><circle cx="0.367" cy="0.367" r="0.367" transform="translate(12.235)"/><circle cx="0.367" cy="0.367" r="0.367" transform="translate(11.011)"/><circle cx="0.367" cy="0.367" r="0.367" transform="translate(9.788)"/><circle cx="0.367" cy="0.367" r="0.367" transform="translate(8.564)"/><circle cx="0.367" cy="0.367" r="0.367" transform="translate(7.341)"/><circle cx="0.367" cy="0.367" r="0.367" transform="translate(6.117)"/><circle cx="0.367" cy="0.367" r="0.367" transform="translate(4.894)"/><circle cx="0.367" cy="0.367" r="0.367" transform="translate(3.67)"/><circle cx="0.367" cy="0.367" r="0.367" transform="translate(2.447)"/><circle cx="0.367" cy="0.367" r="0.367" transform="translate(1.223)"/><circle cx="0.367" cy="0.367" r="0.367" transform="translate(0 0.734)"/><circle cx="0.367" cy="0.367" r="0.367" transform="translate(0 1.958)"/></g></g><g transform="translate(28.412 10.43)"><g transform="matrix(1, 0, 0, 1, -69.41, -30.43)" filter="url(#af)"><ellipse cx="3.146" cy="3.145" rx="3.146" ry="3.145" transform="translate(69.41 30.43)" fill="url(#ae)"/></g><path d="M2.621,5.242h0A2.621,2.621,0,1,1,5.243,2.621,2.621,2.621,0,0,1,2.621,5.242Z" transform="translate(0.524 0.524)"/><g transform="translate(1.044 1.044)"><path d="M2.1,4.2h0A2.1,2.1,0,1,1,4.2,2.1,2.1,2.1,0,0,1,2.1,4.2Z" fill="url(#ah)"/><path d="M2.1,4.2h0A2.1,2.1,0,1,1,4.2,2.1,2.1,2.1,0,0,1,2.1,4.2Z" fill="url(#ai)"/><path d="M2.1,4.2h0A2.1,2.1,0,1,1,4.2,2.1,2.1,2.1,0,0,1,2.1,4.2Z" fill="none"/><g clip-path="url(#aj)"><ellipse cx="1.083" cy="1.083" rx="1.083" ry="1.083" transform="translate(0.413 0.866)" fill="#a658d2"/><ellipse cx="1.083" cy="1.083" rx="1.083" ry="1.083" transform="translate(0.882 1.845)" fill="#6397ec"/><path d="M1.893,3.786A1.893,1.893,0,1,1,3.787,1.893,1.9,1.9,0,0,1,1.893,3.786Zm0-3.665A1.772,1.772,0,1,0,3.666,1.893,1.774,1.774,0,0,0,1.893.121Z" transform="translate(0.208 0.208)" opacity="0.5"/><path d="M1.443,2.885A1.442,1.442,0,1,1,2.886,1.442,1.444,1.444,0,0,1,1.443,2.885Zm0-2.694A1.252,1.252,0,1,0,2.7,1.442,1.254,1.254,0,0,0,1.443.19Z" transform="translate(0.659 0.658)" opacity="0.709" fill="url(#ak)"/><path d="M.7,1.395A.7.7,0,1,1,1.4.7.7.7,0,0,1,.7,1.395ZM.7.069A.628.628,0,1,0,1.326.7.629.629,0,0,0,.7.069Z" transform="translate(1.404 1.404)" fill="#fff"/><path d="M.628,1.256A.628.628,0,1,1,1.257.628.629.629,0,0,1,.628,1.256Zm0-.962A.334.334,0,1,0,.962.628.334.334,0,0,0,.628.295Z" transform="translate(1.473 1.473)" fill="rgba(0,0,0,0.5)"/><path d="M.334.667A.334.334,0,1,1,.667.334.334.334,0,0,1,.334.667Zm0-.511A.178.178,0,1,0,.511.334.178.178,0,0,0,.334.156Z" transform="translate(1.768 1.767)" fill="rgba(0,0,0,0.5)"/><path d="M.178.355h0A.178.178,0,1,0,0,.178.178.178,0,0,0,.178.355Z" transform="translate(1.924 1.923)"/><g transform="translate(1.792 1.921)"><ellipse cx="0.94" cy="0.94" rx="0.94" ry="0.94" fill="#fff"/><ellipse cx="0.94" cy="0.94" rx="0.94" ry="0.94" fill="#fff"/></g><ellipse cx="0.94" cy="0.94" rx="0.94" ry="0.94" transform="translate(1.792 1.921)" fill="rgba(255,255,255,0.1)"/><ellipse cx="0.489" cy="0.489" rx="0.489" ry="0.489" transform="translate(0.786 0.67)" fill="#fff"/><ellipse cx="0.489" cy="0.489" rx="0.489" ry="0.489" transform="translate(0.786 0.67)" fill="rgba(255,255,255,0.15)"/><path d="M0,2.1A2.1,2.1,0,1,1,2.1,4.2,2.1,2.1,0,0,1,0,2.1Z" fill="url(#al)"/><path d="M0,2.1A2.1,2.1,0,1,1,2.1,4.2,2.1,2.1,0,0,1,0,2.1Z" fill="url(#am)"/></g></g></g><g transform="translate(7.096 32.055)"><path d="M0,.268,153.716,0l-.249,273.106H.266Z" transform="translate(0 0)" fill="#202943"/><g transform="translate(0.118 259.479)"><rect width="153.598" height="13.579"/><g transform="translate(24.601 3.395)"><g transform="translate(48.165)" fill="none" stroke="#fff" stroke-width="1"><circle cx="3.395" cy="3.395" r="3.395" stroke="none"/><circle cx="3.395" cy="3.395" r="2.895" fill="none"/></g><g transform="translate(97.39)" fill="none" stroke="#fff" stroke-width="1"><rect width="6.79" height="6.79" rx="3.395" stroke="none"/><rect x="0.5" y="0.5" width="5.79" height="5.79" rx="2.895" fill="none"/></g><path d="M491.148,6.685l-3.181,2.462a.782.782,0,0,0,0,1.326l3.181,2.462c.734.568,2.08.189,2.08-.663V7.348C493.227,6.5,491.881,6.117,491.148,6.685Z" transform="translate(-487.6 -6.203)" fill="none" stroke="#fff" stroke-width="1"/></g></g><circle cx="1.273" cy="1.273" r="1.273" transform="translate(69.288 68.518)" fill="#12b6a6"/><path d="M16.05,0A16.05,16.05,0,1,1,0,16.05,16.05,16.05,0,0,1,16.05,0Z" transform="translate(32.731 49.329)" fill="#12b6a6"/><g transform="translate(29.399 55.363)"><g transform="translate(44.133 1.582)"><text fill="#81a822" font-size="14" font-family="Philosopher-Bold, Philosopher" font-weight="700"><tspan x="0" y="13" xml:space="preserve">ST   RY</tspan></text><circle cx="5.155" cy="5.155" r="5.155" transform="translate(15.52 3.395)" fill="#12b6a6"/></g><text transform="translate(6 14.582)" fill="#f6f6f6" font-size="14" font-family="Philosopher-Bold, Philosopher" font-weight="700"><tspan x="0" y="0">Fact</tspan></text></g><g transform="translate(5.635 3.591)"><g transform="translate(118.034 0.424)"><path d="M1.827,4.763V2.083H3.044v2.68Zm3.653,0V0H6.7V4.761Zm-1.827,0V.892H4.871V4.761ZM0,4.761V3.273H1.218V4.761Z" transform="translate(0 -0.07)" fill="#fff"/><g transform="translate(8.742 0.93)"><path d="M6.183,14.239l-.532.525a.037.037,0,0,0-.038.037H5.574c-.038,0-.076,0-.076-.037a3.124,3.124,0,0,0-2.28-.937,3.064,3.064,0,0,0-2.28.937c0,.037-.038.037-.076.037H.824a.037.037,0,0,1-.038-.037l-.532-.525a.165.165,0,0,1,0-.187,4.2,4.2,0,0,1,1.9-1.087,4.245,4.245,0,0,1,2.166,0,4.2,4.2,0,0,1,1.9,1.087A.278.278,0,0,1,6.183,14.239ZM5,15.4l-.532.525a.037.037,0,0,0-.038.037H4.4c-.038,0-.076,0-.076-.037a1.533,1.533,0,0,0-1.1-.45,1.533,1.533,0,0,0-1.1.45.119.119,0,0,1-.076.037H2a.037.037,0,0,1-.038-.037L1.432,15.4c-.076-.075-.076-.112,0-.187a2.514,2.514,0,0,1,1.824-.749,2.514,2.514,0,0,1,1.824.749A.2.2,0,0,1,5,15.4Zm-1.14,1.124-.57.562c-.076.075-.114.075-.19,0l-.57-.562a.168.168,0,0,1,0-.187.923.923,0,0,1,.684-.262.923.923,0,0,1,.684.262A.278.278,0,0,1,3.864,16.525Z" transform="translate(-0.225 -12.825)" fill="#fff"/></g><g transform="translate(16.618 0.93)"><g transform="translate(5.522 0.67) rotate(90)"><rect width="2.593" height="1.675" transform="translate(0 3.351)" fill="#fff" stroke="rgba(0,0,0,0)" stroke-width="1"/><rect width="2.593" height="1.675" transform="translate(0 1.675)" fill="#fff" stroke="rgba(0,0,0,0)" stroke-width="1"/><rect width="2.593" height="1.675" transform="translate(0 0)" fill="#fff" stroke="rgba(0,0,0,0)" stroke-width="1"/></g><path d="M336.308,7.692h7.053V8.68h.535v1.99h-.535v.961h-7.053Z" transform="translate(-336.308 -7.692)" fill="none" stroke="#fff" stroke-width="0.5"/></g></g><text transform="translate(0 4.354)" fill="#fff" font-size="4" font-family="SegoeUI, Segoe UI"><tspan x="0" y="0">9*41 AM</tspan></text><path d="M.483,2.79a2.247,2.247,0,0,1,.092-.637A1.153,1.153,0,0,1,0,1.163,1.186,1.186,0,0,1,1.207,0,1.217,1.217,0,0,1,2.236.553a2.522,2.522,0,0,1,1.324,0A1.217,1.217,0,0,1,4.588,0,1.185,1.185,0,0,1,5.8,1.163a1.153,1.153,0,0,1-.575.99,2.247,2.247,0,0,1,.092.637A2.371,2.371,0,0,1,2.9,5.115,2.371,2.371,0,0,1,.483,2.79Z" transform="translate(19.096 0.354)" fill="#fff"/></g><text transform="translate(23.063 111.286)" fill="#fff" font-size="10" font-family="AbrilDisplay-SemiBold, Abril Display" font-weight="600" letter-spacing="0.05em"><tspan x="0" y="0">Every fact has a story.</tspan></text></g></g></g></svg>