<svg xmlns="http://www.w3.org/2000/svg" width="72.082" height="72.082" viewBox="0 0 72.082 72.082">
  <path id="portfolio_logo" d="M64.775,33.266s8.816,5.1,8.816,10.755c0,5.476-10.315,7.461-21.675,6.912,0,0-4.827,6.75-9.464,9.615,4.989,9.383,8.78,13.029,8.731,13.029,0,0-2.51.644-10.262-11.861-4.544,2.905-9.644,4.085-11.759,2.26s-.462-4.879.425-6.363c-.932.539-5.82,3.351-10.072,3.351-5.1,0-5.82-3.8-5.82-5.737,0-7.334,7.1-17.611,7.1-17.611s-3.31-7.37-3.664-13.036A54.723,54.723,0,0,0,1.6,25.67c-.469,0,1.066-1.1,1.577-1.245a56.668,56.668,0,0,1,13.769-1.76c0-5.962,1.2-11.459,4.834-11.459,2.487,0,4.468,3.843,4.468,3.843S26.209,1.5,33.227,1.5c7.075,0,14.6,15.823,14.6,15.823s7.681.732,13.276,3.35c2.243-4.667,4.255-6.789,6.73-14,.6,2.388-2.089,8.609-5.017,14.739h0l0,.008s7.9,4.1,7.9,8.658C70.708,33.561,64.775,33.266,64.775,33.266ZM33.016,60.132c2.341.359,5.947-1.654,5.9-1.654L36.1,53.221l-4.05,2.844C32.026,56.1,29.451,59.418,33.016,60.132ZM65.55,29.859c0-2.288-4.122-4.864-4.58-5.131L57.785,29.81,62.2,31.928C63.641,31.837,65.55,31.858,65.55,29.859ZM23.827,15.669C22.8,15.669,20.7,17.2,20.7,22.56l5.954.218-.366-4.793C25.871,16.922,24.856,15.669,23.827,15.669ZM31.311,50.5c-4.329-2.24-6.96-5.886-9.076-9.875,0,0-5.444,9.11-1.959,11.4S29.451,51.8,31.311,50.5Zm9.583,6.814c3.912-2.993,14.489-10.394,15.383-22.932C46.4,28.74,32.832,26.241,32.832,26.241a14.3,14.3,0,0,1,.247-2.907,102.394,102.394,0,0,1,21.748,5.383,20.11,20.11,0,0,0-5.7-6.643c4,.915,6.842,6.046,6.842,6.046l3.178-4.441s-15.037-8.075-27.8-1.851c-.279,9.889,4.792,24.495,4.792,24.495l-2.621,1.133c-1.8-3.589-4.093-9.605-6.305-21.341-.981,1.395-2.806,3-2.839,8.3-1.578-4.434,1.724-9.118,1.752-9.169l-5.489-.528c.333,5.692,3.34,20.386,12.381,24.945,7.941-4.533,16.517-13.7,18.723-16.351l2.4,1.746L38.752,51.172a19.082,19.082,0,0,0,8.5-1.612c-2.492,2.576-6.727,2.81-8.765,2.8A46.27,46.27,0,0,0,40.894,57.317Zm3.653-40.205c-.163-.267-4.734-8.1-8.794-7.5-2.7.845-4.226,5.385-4.294,10.309C33.29,18.852,37.558,16.945,44.547,17.111Zm9.2,30.978s11.3-.254,10.95-4.519c0-4.11-6.8-8.32-6.8-8.275A22.894,22.894,0,0,1,53.747,48.089Z" transform="translate(-1.508 -1.5)" fill="#a8a8a8"/>
</svg>
